HIERARCHY
ROOT Hips
{
	OFFSET 0.000000 0.000000 0.000000 
	CHANNELS 6 Xposition Yposition Zposition Zrotation Yrotation Xrotation
	JOINT LeftUpLeg
	{
		OFFSET 1.363060 -1.794630 0.839290 
		CHANNELS 3 Zrotation Yrotation Xrotation
		JOINT LeftLeg
		{
			OFFSET 2.448110 -6.726130 0.000000 
			CHANNELS 3 Zrotation Yrotation Xrotation
			JOINT LeftFoot
			{
				OFFSET 2.562200 -7.039590 0.000000 
				CHANNELS 3 Zrotation Yrotation Xrotation
				JOINT LeftToeBase
				{
					OFFSET 0.157640 -0.433110 2.322550 
					CHANNELS 3 Zrotation Yrotation Xrotation
					End Site
					{
						OFFSET 0.000000 0.000000 0.000000 
					}
				}
			}
		}
	}
	JOINT RightUpLeg
	{
		OFFSET -1.305520 -1.794630 0.839290 
		CHANNELS 3 Zrotation Yrotation Xrotation
		JOINT RightLeg
		{
			OFFSET -2.542530 -6.985550 0.000000 
			CHANNELS 3 Zrotation Yrotation Xrotation
			JOINT RightFoot
			{
				OFFSET -2.568260 -7.056230 0.000000 
				CHANNELS 3 Zrotation Yrotation Xrotation
				JOINT RightToeBase
				{
					OFFSET -0.164730 -0.452590 2.363150 
					CHANNELS 3 Zrotation Yrotation Xrotation
					End Site
					{
						OFFSET 0.000000 0.000000 0.000000 
					}
				}
			}
		}
	}
	JOINT Spine
	{
		OFFSET 0.028270 2.035590 -0.193380 
		CHANNELS 3 Zrotation Yrotation Xrotation
		JOINT Spine1
		{
			OFFSET 0.056720 2.048850 -0.042750 
			CHANNELS 3 Zrotation Yrotation Xrotation
			JOINT Neck1
			{
				OFFSET -0.054170 1.746240 0.172020 
				CHANNELS 3 Zrotation Yrotation Xrotation
				JOINT Head
				{
					OFFSET 0.104070 1.761360 -0.123970 
					CHANNELS 3 Zrotation Yrotation Xrotation
					End Site
					{
						OFFSET 0.000000 0.000000 0.000000 
					}
				}
			}
			JOINT LeftArm
			{
				OFFSET 3.362410 1.200890 -0.311210 
				CHANNELS 3 Zrotation Yrotation Xrotation
				JOINT LeftForeArm
				{
					OFFSET 4.983000 -0.000000 -0.000000 
					CHANNELS 3 Zrotation Yrotation Xrotation
					JOINT LeftHand
					{
						OFFSET 3.483560 -0.000000 -0.000000 
						CHANNELS 3 Zrotation Yrotation Xrotation
						JOINT LeftHandIndex1
						{
							OFFSET 0.715260 -0.000000 -0.000000 
							CHANNELS 3 Zrotation Yrotation Xrotation
							End Site
							{
								OFFSET 0.000000 0.000000 0.000000 
							}
						}
					}
				}
			}
			JOINT RightArm
			{
				OFFSET -3.136600 1.374050 -0.404650 
				CHANNELS 3 Zrotation Yrotation Xrotation
				JOINT RightForeArm
				{
					OFFSET -5.241900 -0.000000 -0.000000 
					CHANNELS 3 Zrotation Yrotation Xrotation
					JOINT RightHand
					{
						OFFSET -3.444170 -0.000000 -0.000000 
						CHANNELS 3 Zrotation Yrotation Xrotation
						JOINT RightHandIndex1
						{
							OFFSET -0.622530 -0.000000 -0.000000 
							CHANNELS 3 Zrotation Yrotation Xrotation
							End Site
							{
								OFFSET 0.000000 0.000000 0.000000 
							}
						}
					}
				}
			}
		}
	}
}
MOTION
Frames: 7
Frame Time: 0.041667
8.312335 16.086449 -21.069231 176.961622 -52.096110 -160.949337 -23.859412 -2.430399 -49.819865 7.323451 18.643505 52.127748 -0.099725 4.671551 -12.656088 0.008600 -0.598400 -1.644300 18.022979 9.514061 -49.470076 -9.764143 -21.404931 61.092045 0.662494 -9.964051 -20.281197 -0.166000 2.625000 -7.236400 1.599881 -1.449894 4.126738 -4.155521 -1.326857 5.854376 7.263335 -3.650759 -12.586528 1.259500 -3.345700 -9.635200 -52.039147 -20.896333 30.916902 41.363062 -46.111334 -23.613538 -0.522686 -2.068335 -30.635038 -7.125000 0.000000 0.000000 -14.951355 28.481354 -27.859092 -67.151774 56.054367 -53.348758 -0.412591 4.539776 -56.607897 7.125000 0.000000 0.000000 
8.320175 16.089839 -21.085547 176.862487 -52.098484 -160.866766 -23.865749 -2.412366 -49.780154 7.304801 18.628126 52.065377 -0.102699 4.677623 -12.624236 0.008600 -0.598700 -1.645100 18.033515 9.520467 -49.455352 -9.764038 -21.404646 61.094111 0.646912 -9.924894 -20.340130 -0.158500 2.564900 -7.069600 1.603991 -1.463553 4.113944 -4.137415 -1.335036 5.795949 7.251457 -3.616409 -12.820123 1.275900 -3.352200 -9.757500 -52.053159 -20.846611 30.890586 41.396238 -46.127286 -23.646593 -0.516174 -2.066775 -30.602194 -7.125000 0.000000 0.000000 -14.934996 28.399526 -27.639407 -67.629841 56.240243 -53.791179 -0.423526 4.525005 -56.612888 7.125000 0.000000 0.000000 
8.328015 16.093018 -21.101333 176.766943 -52.102098 -160.791612 -23.869736 -2.392710 -49.739827 7.286524 18.613282 52.004223 -0.105576 4.680842 -12.586484 0.008600 -0.599900 -1.648600 18.046835 9.532187 -49.431522 -9.762286 -21.403428 61.091462 0.634056 -9.901319 -20.407980 -0.151700 2.509500 -6.916000 1.611043 -1.486850 4.103106 -4.098240 -1.351887 5.745998 7.237825 -3.575109 -13.038410 1.295800 -3.350700 -9.870400 -52.085818 -20.796210 30.826098 41.423967 -46.139793 -23.678243 -0.512359 -2.063157 -30.556334 -7.125000 0.000000 0.000000 -14.958132 28.347352 -27.441015 -68.090930 56.422193 -54.201034 -0.432989 4.509022 -56.646457 7.125000 0.000000 0.000000 
8.335962 16.095879 -21.116802 176.677966 -52.109300 -160.725936 -23.868327 -2.375011 -49.698004 7.269314 18.599252 51.946428 -0.107601 4.677899 -12.544512 0.008600 -0.597100 -1.640800 18.064613 9.545938 -49.399021 -9.759202 -21.401356 61.085457 0.622297 -9.886440 -20.484528 -0.145000 2.453600 -6.760900 1.620834 -1.518059 4.093751 -4.041046 -1.375961 5.701900 7.220595 -3.526445 -13.238141 1.316800 -3.341300 -9.973300 -52.135378 -20.746939 30.732500 41.443456 -46.147794 -23.705537 -0.511051 -2.058610 -30.513707 -7.125000 0.000000 0.000000 -15.011302 28.322045 -27.258613 -68.535410 56.599663 -54.581284 -0.442325 4.492068 -56.713267 7.125000 0.000000 0.000000 
8.343908 16.098739 -21.131741 176.599656 -52.124907 -160.674800 -23.858134 -2.361034 -49.653013 7.253239 18.586330 51.892727 -0.108669 4.668295 -12.499883 0.008400 -0.590900 -1.623800 18.091214 9.556461 -49.356872 -9.755081 -21.398274 61.076613 0.609518 -9.870709 -20.567988 -0.137800 2.392800 -6.592600 1.631968 -1.556823 4.085735 -3.978920 -1.404504 5.664650 7.203830 -3.475140 -13.415181 1.338900 -3.326800 -10.063300 -52.189878 -20.702404 30.619770 41.451627 -46.149744 -23.725035 -0.512604 -2.054325 -30.481773 -7.125000 0.000000 0.000000 -15.084699 28.315617 -27.087438 -68.955656 56.768431 -54.929313 -0.451857 4.475914 -56.805388 7.125000 0.000000 0.000000 
8.351854 16.101282 -21.146468 176.529419 -52.147481 -160.628257 -23.841354 -2.350654 -49.613705 7.238328 18.574372 51.842923 -0.109295 4.654545 -12.448171 0.008200 -0.584800 -1.606900 18.122019 9.565501 -49.315677 -9.750712 -21.395285 61.067380 0.596023 -9.852939 -20.653011 -0.130300 2.327100 -6.410600 1.642885 -1.601454 4.079239 -3.920430 -1.434889 5.636979 7.188851 -3.424997 -13.568736 1.360300 -3.310500 -10.139500 -52.236578 -20.665015 30.494996 41.450283 -46.146374 -23.737532 -0.516837 -2.050326 -30.468926 -7.125000 0.000000 0.000000 -15.166867 28.318935 -26.922559 -69.355132 56.929036 -55.252653 -0.460577 4.460360 -56.914122 7.125000 0.000000 0.000000 
8.359906 16.103825 -21.160877 176.456386 -52.174578 -160.579559 -23.826939 -2.342655 -49.576711 7.223725 18.562951 51.794161 -0.110092 4.639809 -12.392018 0.008100 -0.582400 -1.600400 18.149125 9.571077 -49.275067 -9.746444 -21.392085 61.058209 0.581055 -9.827586 -20.735815 -0.122600 2.256800 -6.215900 1.652951 -1.647778 4.073476 -3.867037 -1.465116 5.615389 7.178906 -3.383615 -13.697922 1.381400 -3.296600 -10.200400 -52.272233 -20.637791 30.368541 41.441843 -46.138920 -23.744499 -0.520993 -2.048921 -30.480044 -7.125000 0.000000 0.000000 -15.243297 28.323275 -26.754581 -69.749207 57.086057 -55.568886 -0.467839 4.445122 -57.018636 7.125000 0.000000 0.000000 
